<svg xmlns="http://www.w3.org/2000/svg" width="2060" height="703" viewBox="0 0 2060 703" version="1.1"><path d="M 1600 137.152 C 1600 137.786, 1601.386 140.148, 1603.080 142.402 C 1604.774 144.656, 1612.213 155.050, 1619.611 165.500 C 1627.009 175.950, 1634.549 186.525, 1636.366 189 C 1638.183 191.475, 1645.707 202.043, 1653.085 212.484 C 1660.463 222.925, 1679.100 249.126, 1694.500 270.708 C 1753.608 353.544, 1768 373.868, 1768 374.501 C 1768 374.861, 1764.093 380.408, 1759.318 386.828 C 1738.802 414.412, 1727.332 429.852, 1711.650 451 C 1687.765 483.209, 1668.231 509.519, 1644.829 541 C 1633.586 556.125, 1619.912 574.554, 1614.443 581.954 C 1608.974 589.353, 1598.325 603.705, 1590.778 613.845 C 1583.231 623.986, 1577.296 632.669, 1577.587 633.141 C 1577.879 633.614, 1595.609 634, 1616.988 634 C 1649.583 634, 1656.091 633.766, 1657.305 632.552 C 1658.101 631.756, 1663.525 624.443, 1669.357 616.302 C 1675.189 608.161, 1684.989 594.525, 1691.136 586 C 1697.282 577.475, 1703.742 568.475, 1705.491 566 C 1709.752 559.969, 1747.346 507.812, 1751.982 501.500 C 1756.373 495.521, 1778.025 465.368, 1782.501 459 C 1784.240 456.525, 1789.863 447.846, 1794.996 439.714 C 1800.129 431.582, 1804.656 425.282, 1805.057 425.714 C 1805.458 426.146, 1808.920 431.283, 1812.751 437.130 C 1818.831 446.409, 1824.788 455.064, 1843.840 482.296 C 1846.227 485.708, 1851.216 492.775, 1854.927 498 C 1858.639 503.225, 1866.102 513.800, 1871.513 521.500 C 1876.924 529.200, 1883.436 538.425, 1885.986 542 C 1888.535 545.575, 1894.897 554.575, 1900.123 562 C 1920.621 591.121, 1925.566 598.134, 1937.853 615.500 L 1950.588 633.500 1990.983 633.762 C 2013.199 633.905, 2031.729 633.671, 2032.159 633.241 C 2032.589 632.811, 2023.439 619.193, 2011.826 602.979 C 1950.314 517.101, 1910.672 461.795, 1894.058 438.676 C 1883.851 424.473, 1873.225 409.623, 1870.444 405.676 C 1867.663 401.729, 1861.232 392.751, 1856.153 385.725 C 1851.074 378.699, 1846.682 372.336, 1846.394 371.584 C 1845.885 370.258, 1851.528 362.502, 1910.484 283.500 C 1925.259 263.700, 1944.392 238.050, 1953 226.500 C 1961.609 214.950, 1979.980 190.304, 1993.826 171.730 C 2007.672 153.157, 2019 137.519, 2019 136.980 C 2019 136.358, 2005.872 136, 1983.062 136 L 1947.124 136 1925.312 164.731 C 1849.428 264.688, 1830.260 290.371, 1819.509 306.495 C 1813.643 315.292, 1808.695 322.638, 1808.512 322.821 C 1808.330 323.004, 1806.322 320.081, 1804.051 316.327 C 1793.170 298.341, 1778.790 277.275, 1743.416 227.500 C 1738.335 220.350, 1730.425 209.191, 1725.839 202.703 C 1721.252 196.215, 1715.499 188.115, 1713.053 184.703 C 1710.606 181.291, 1706.080 174.900, 1702.995 170.500 C 1699.909 166.100, 1695.631 160.025, 1693.487 157 C 1691.343 153.975, 1687.177 148.012, 1684.229 143.750 L 1678.869 136 1639.434 136 C 1610.340 136, 1600 136.302, 1600 137.152" stroke="none" fill="#23a4fc" fill-rule="evenodd"/><path d="M 484.667 251.667 C 483.705 252.628, 483.873 631.252, 484.836 632.769 C 485.457 633.748, 490.994 633.976, 509.071 633.769 L 532.500 633.500 532.758 578.443 L 533.017 523.387 548.904 508.216 C 562.252 495.470, 564.986 493.278, 566.005 494.507 C 566.673 495.311, 570.436 501.038, 574.368 507.234 C 584.385 523.021, 589.744 531.346, 603.500 552.497 C 610.100 562.645, 618.485 575.572, 622.134 581.224 C 625.782 586.876, 634.952 601.063, 642.510 612.750 L 656.252 634 685.067 634 C 700.915 634, 714.120 633.615, 714.410 633.145 C 714.872 632.398, 696.801 605.145, 617.171 486.500 L 599.049 459.500 611.775 446.971 C 628.649 430.356, 687.581 373.189, 696.750 364.538 C 700.738 360.777, 704 357.317, 704 356.849 C 704 356.382, 690.124 356, 673.165 356 L 642.331 356 622.994 375.750 C 612.358 386.613, 587.871 411.421, 568.578 430.881 L 533.500 466.261 533.246 358.631 L 532.991 251 509.162 251 C 496.056 251, 485.033 251.300, 484.667 251.667 M 1047.451 252.266 C 1047.184 252.963, 1047.086 265.225, 1047.233 279.516 L 1047.500 305.500 1071.500 305.500 L 1095.500 305.500 1095.766 278.250 L 1096.032 251 1071.985 251 C 1053.503 251, 1047.825 251.293, 1047.451 252.266 M 1313.247 442.250 L 1313.500 633.500 1337.250 633.768 L 1361 634.036 1361 555.573 C 1361 472.275, 1361.572 457.888, 1365.495 442.421 C 1370.635 422.156, 1381.691 408.582, 1400.500 399.441 C 1412.444 393.637, 1420.826 391.762, 1434.500 391.838 C 1463.302 391.996, 1480.174 403.998, 1488.159 430.007 L 1490.459 437.500 1490.980 535.500 L 1491.500 633.500 1515.500 633.500 L 1539.500 633.500 1539.500 536 C 1539.500 433.633, 1539.361 429.838, 1534.925 411 C 1525.963 372.939, 1491.762 349.895, 1444.062 349.778 C 1413.817 349.703, 1389.518 359.165, 1368.373 379.251 L 1361 386.254 1361 318.627 L 1361 251 1336.997 251 L 1312.995 251 1313.247 442.250 M 1200.922 271.157 C 1190.790 277.293, 1180.588 283.406, 1178.250 284.742 L 1174 287.171 1174 321.585 L 1174 356 1156.478 356 L 1138.956 356 1139.228 374.750 L 1139.500 393.500 1156.692 393.773 L 1173.884 394.047 1174.266 492.273 C 1174.683 599.369, 1174.584 597.498, 1180.463 609.513 C 1185.903 620.632, 1196.400 629.098, 1210.343 633.613 C 1217.338 635.877, 1220.779 636.324, 1234.500 636.746 C 1250.640 637.243, 1272.169 635.183, 1274.463 632.923 C 1275.341 632.058, 1269.854 593.191, 1268.558 591.094 C 1268.290 590.661, 1265.918 590.661, 1263.286 591.094 C 1256.305 592.242, 1241.094 592.154, 1236.723 590.940 C 1234.645 590.363, 1231.316 588.460, 1229.324 586.711 C 1222.090 580.360, 1222.531 586.661, 1222.220 485.269 L 1221.940 394.037 1245.220 393.769 L 1268.500 393.500 1268.772 374.750 L 1269.044 356 1245.522 356 L 1222 356 1222 308 C 1222 268.764, 1221.758 260, 1220.672 260 C 1219.942 260, 1211.054 265.021, 1200.922 271.157 M 157 350.027 C 129.850 352.547, 106.655 364.881, 88.865 386.258 L 84 392.104 84 374.052 L 84 356 62.500 356 L 41 356 41 495.018 L 41 634.036 64.750 633.768 L 88.500 633.500 89.038 547 C 89.515 470.118, 89.770 459.499, 91.327 451.500 C 93.968 437.924, 94.802 435.217, 99.113 426.226 C 109.214 405.160, 131.130 392, 156.111 392 C 182.785 392, 196.519 403.075, 202.616 429.500 C 204.331 436.935, 204.483 444.443, 204.768 535.768 L 205.074 634.036 228.787 633.768 L 252.500 633.500 253.062 543 C 253.667 445.464, 253.470 449.118, 259.032 432.404 C 265.635 412.562, 284.631 396.735, 306.390 392.946 C 316.250 391.229, 332.060 392.188, 339.243 394.939 C 346.892 397.869, 355.716 404.702, 359.917 410.949 C 368.541 423.775, 369.401 437.169, 368.582 546 C 368.229 593.025, 368.322 632.071, 368.790 632.769 C 369.446 633.747, 375.012 633.976, 393.071 633.769 L 416.500 633.500 416.500 531 C 416.500 436.328, 416.361 427.714, 414.680 418.203 C 410.736 395.880, 403.499 380.987, 391.268 370.020 C 377.644 357.805, 362.510 351.905, 340 350.035 C 304.045 347.047, 272.884 361.227, 249.754 391.103 L 245.416 396.705 240.958 388.151 C 233.316 373.488, 219.686 361.613, 203.559 355.568 C 191.301 350.973, 171.805 348.653, 157 350.027 M 853.492 350.034 C 822.801 352.539, 798.216 363.175, 777.761 382.797 C 756.826 402.879, 745.102 425.433, 738.797 457.757 C 736.748 468.259, 736.507 472.407, 736.512 497 C 736.517 521.981, 736.734 525.553, 738.880 536 C 744.627 563.973, 755.609 586.091, 772.154 603.014 C 790.124 621.394, 811.682 632.579, 839 637.693 C 851.983 640.124, 883.616 640.146, 896.636 637.733 C 923.006 632.845, 942.414 622.906, 959.500 605.539 C 968.959 595.924, 975.517 586.433, 981.465 573.750 C 985.819 564.466, 990.761 550.402, 989.939 549.636 C 989.451 549.180, 968.393 546.399, 951.617 544.575 L 940.734 543.392 939.271 546.946 C 932.599 563.153, 924.274 576.049, 915.821 583.269 C 894.042 601.872, 859.983 605.269, 832.071 591.622 C 817.605 584.549, 802.620 568.537, 795.610 552.662 C 790.594 541.302, 786.014 521.798, 786.004 511.750 L 786 508 887.750 507.985 C 945.698 507.976, 990.107 507.585, 990.911 507.076 C 992.078 506.337, 992.213 503.108, 991.692 488.342 C 989.884 437.033, 975.276 402.171, 945 376.911 C 920.723 356.656, 888.461 347.180, 853.492 350.034 M 1047.462 357.250 C 1047.200 357.938, 1047.102 420.375, 1047.243 496 L 1047.500 633.500 1071.500 633.500 L 1095.500 633.500 1095.754 494.750 L 1096.007 356 1071.972 356 C 1053.665 356, 1047.824 356.298, 1047.462 357.250 M 846.179 391.945 C 818.538 398.734, 796.036 422.963, 790.584 451.807 C 789.784 456.038, 788.870 461.413, 788.553 463.750 L 787.976 468 864.341 468 L 940.706 468 940.271 462.750 C 939.519 453.691, 935.196 437.356, 931.477 429.518 C 922.697 411.017, 903.387 395.721, 883.500 391.515 C 873.795 389.463, 855.426 389.674, 846.179 391.945" stroke="none" fill="#657786" fill-rule="evenodd"/></svg>